<svg height="512" viewBox="0 0 60 60" width="512" xmlns="http://www.w3.org/2000/svg"><g id="Page-1" fill="none" fill-rule="evenodd"><g id="046---Any-Solvent" fill-rule="nonzero"><circle id="Oval" cx="30" cy="30" fill="#e8edfc" r="29"/><path id="Shape" d="m30 1c-.5033333 0-1.0033333.01266667-1.5.038 15.4192225.79012792 27.5158989 13.5225465 27.5158989 28.962s-12.0966764 28.1718721-27.5158989 28.962c.4973333.0253333.9973333.038 1.5.038 16.0162576-.0000002 28.9999996-12.9837424 28.9999996-29s-12.983742-28.99999976-28.9999996-29z" fill="#cad9fc"/><circle id="Oval" cx="30" cy="30" fill="#cad9fc" r="25"/><path id="Shape" d="m30 5c-.5 0-1 .019-1.5.049 13.1671239.83401357 23.4196519 11.7564891 23.4196519 24.95s-10.252528 24.1159864-23.4196519 24.95c.5.03 1 .049 1.5.049 13.7193264-.1227131 24.7763954-11.2791248 24.7763954-24.999s-11.057069-24.87628693-24.7763954-24.999z" fill="#a4c2f7"/><path id="Shape" d="m43.763 41.831-11-26c-.4695193-1.110033-1.5577524-1.8313123-2.763-1.8313123s-2.2934807.7212793-2.763 1.8313123l-11 26c-.4176435.9871248-.2769372 2.1220759.3691163 2.9773282.6460534.8552523 1.6993031 1.3008726 2.763 1.1690001 1.0636969-.1318726 1.9762402-.8212034 2.3938837-1.8083283l2.187-5.169h12.1l2.187 5.169c.4176435.9871248 1.3301868 1.6764556 2.3938837 1.8083282 1.0636969.1318725 2.1169466-.3137477 2.763-1.169s.7867598-1.9902034.3691163-2.9773282zm-17.275-8.831 3.512-8.3 3.512 8.3z" fill="#fff"/><path id="Shape" d="m23.488 33h3l2.012-4.755-1.5-3.546z" fill="#e8edfc"/><path id="Shape" d="m18.763 44.169c-.2553447.5968306-.6988956 1.0937621-1.263 1.415.7348409.4648318 1.6394791.575406 2.4646462.3012545.825167-.2741516 1.4837772-.9040957 1.7943538-1.7162545l2.191-5.169h-3z" fill="#e8edfc"/><path id="Shape" d="m43.763 41.831-11-26c-.3324845-.7943099-.9919948-1.4061948-1.808953-1.6783226-.8169581-.2721277-1.7116576-.1779482-2.454047.2583226.564316.3232714 1.0077533.8218311 1.263 1.42l11 26c.5862257 1.3930055.0407851 3.004437-1.271 3.755 1.1143684.6531533 2.5219395.5182885 3.4920098-.334583.9700703-.8528714 1.2840683-2.2315847.7789902-3.420417z" fill="#e8edfc"/><path id="Shape" d="m4 30c-.00043591-15.4336176 12.0870416-28.16370944 27.5-28.962-.4966667-.02533333-.9966667-.038-1.5-.038-16.0162576.00000024-28.99999957 12.9837424-28.99999957 29s12.98374197 28.9999998 28.99999957 29c.5033333 0 1.0033333-.0126667 1.5-.038-15.4129584-.7982906-27.50043591-13.5283824-27.5-28.962z" fill="#fff"/><path id="Shape" d="m1.154 21.832 1.925.544-.479 1.869c-.12.632-.2 1.272-.3 1.907l-.147.954-.05.965-.103 1.929h-2l.1-2.066.06-1.034.155-1.023c.109-.681.2-1.366.325-2.043z" fill="#fff"/><g fill="#428dff"><path id="Shape" d="m1.342 27.011c-.55228475.0027614-1.00223858-.4427153-1.005-.995s.44271525-1.0022386.995-1.005h.01c.55228475 0 1 .4477153 1 1s-.44771525 1-1 1z"/><path id="Shape" d="m30 0c-6.527709.01749196-12.8724627 2.15861817-18.076 6.1-2.58606715 1.95398329-4.84291349 4.3090708-6.685 6.976-1.81070772 2.6887945-3.18907973 5.644618-4.085 8.76-.15022144.5315741.15892594 1.0842785.69050001 1.2345.53157406.1502214 1.08427853-.1589259 1.23449999-.6905.83540038-2.9087635 2.12095999-5.6688364 3.81-8.18 5.2452677-7.60110041 13.875865-12.15708187 23.111-12.2 15.463973 0 28 12.536027 28 28s-12.536027 28-28 28-28-12.536027-28-28c0-.5522847-.44771525-1-1-1s-1 .4477153-1 1c0 16.5685425 13.4314575 30 30 30s30-13.4314575 30-30-13.4314575-30-30-30z"/><path id="Shape" d="m30 56c14.3594035 0 26-11.6405965 26-26s-11.6405965-26-26-26-26 11.6405965-26 26c.01598214 14.3527783 11.6472217 25.9840179 26 26zm0-50c13.254834 0 24 10.745166 24 24s-10.745166 24-24 24-24-10.745166-24-24c.01542952-13.2484376 10.7515624-23.98457048 24-24z"/><path id="Shape" d="m17.44 46.684c.9771631.4138667 2.0787372.4224756 3.0622494.0239318.9835122-.3985437 1.768347-1.1715727 2.1817506-2.1489318l1.928-4.559h10.776l1.928 4.559c.861012 2.034617 3.208383 2.9860118 5.243 2.1249999s2.9860119-3.2083829 2.125-5.2429999l-11-26c-.6260258-1.480044-2.0770032-2.4417497-3.684-2.4417497s-3.0579742.9617057-3.684 2.4417497l-11 26c-.4136124.9769242-.4221991 2.0781437-.0238711 3.0613989.3983281.9832553 1.1709414 1.7680016 2.1478711 2.1816011zm-.282-4.463 11-26c.3130129-.740022 1.0385016-1.2208748 1.842-1.2208748s1.5289871.4808528 1.842 1.2208748l11 26c.206531.4886552.2104556 1.0393462.0109102 1.5308954-.1995453.4915493-.5862101.8836797-1.0749102 1.0901046-1.0170942.4104-2.1763778-.0599506-2.62-1.063l-2.186-5.169c-.1566411-.3698396-.5193562-.6100744-.921-.61h-12.1c-.4016438-.0000744-.7643589.2401604-.921.61l-2.186 5.169c-.2749894.6630997-.8842654 1.1279618-1.5964483 1.2180498-.712183.0900879-1.4180215-.2084182-1.8494655-.7821573-.431444-.573739-.5223083-1.3346974-.2380862-1.9938925z"/><path id="Shape" d="m26.488 34h7.024c.3354208.0000621.6485325-.1680428.8338006-.4476548.1852681-.2796119.2180135-.6334847.0871994-.9423452l-3.512-8.3c-.1565064-.370011-.5192508-.6104374-.921-.6104374s-.7644936.2404264-.921.6104374l-3.512 8.3c-.1308141.3088605-.0980687.6627333.0871994.9423452.1852681.279612.4983798.4477169.8338006.4476548zm3.512-6.734 2 4.734h-4z"/></g></g></g></svg>